<?xml version="1.0" encoding="UTF-8" standalone="no"?>
<svg
   xmlns:osb="http://www.openswatchbook.org/uri/2009/osb"
   xmlns:dc="http://purl.org/dc/elements/1.1/"
   xmlns:cc="http://creativecommons.org/ns#"
   xmlns:rdf="http://www.w3.org/1999/02/22-rdf-syntax-ns#"
   xmlns:svg="http://www.w3.org/2000/svg"
   xmlns="http://www.w3.org/2000/svg"
   xmlns:sodipodi="http://sodipodi.sourceforge.net/DTD/sodipodi-0.dtd"
   xmlns:inkscape="http://www.inkscape.org/namespaces/inkscape"
   id="SVGRoot"
   version="1.1"
   viewBox="0 0 1024.0 1024.0"
   height="1024.0px"
   width="1024.0px"
   sodipodi:docname="border.svg"
   inkscape:version="1.0 (4035a4f, 2020-05-01)"
   inkscape:export-filename="/Users/jon/Dropbox/Personal/Figjaj/Icons/buttons/dot/blank2.png"
   inkscape:export-xdpi="24.000002"
   inkscape:export-ydpi="24.000002">
  <defs
     id="defs833">
    <rect
       x="480"
       y="340"
       width="0"
       height="100"
       id="rect11464" />
    <rect
       id="rect3699"
       height="214.03901"
       width="485.51531"
       y="310"
       x="80" />
    <rect
       id="rect1351"
       height="300"
       width="150"
       y="230"
       x="-310" />
    <inkscape:path-effect
       effect="skeletal"
       id="path-effect1454"
       is_visible="true"
       lpeversion="1"
       pattern="M 0,5 C 0,2.24 2.24,0 5,0 7.76,0 10,2.24 10,5 10,7.76 7.76,10 5,10 2.24,10 0,7.76 0,5 Z"
       copytype="single_stretched"
       prop_scale="1"
       scale_y_rel="false"
       spacing="0"
       normal_offset="0"
       tang_offset="0"
       prop_units="false"
       vertical_pattern="false"
       hide_knot="false"
       fuse_tolerance="0" />
    <linearGradient
       id="linearGradient933"
       osb:paint="solid">
      <stop
         style="stop-color:#424242;stop-opacity:0.98240471;"
         offset="0"
         id="stop931" />
    </linearGradient>
    <inkscape:path-effect
       effect="skeletal"
       id="path-effect1188"
       is_visible="true"
       lpeversion="1"
       pattern="M 0,5 C 0,2.24 2.24,0 5,0 7.76,0 10,2.24 10,5 10,7.76 7.76,10 5,10 2.24,10 0,7.76 0,5 Z"
       copytype="single_stretched"
       prop_scale="1"
       scale_y_rel="false"
       spacing="0"
       normal_offset="0"
       tang_offset="0"
       prop_units="false"
       vertical_pattern="false"
       hide_knot="false"
       fuse_tolerance="0" />
    <inkscape:path-effect
       effect="bspline"
       id="path-effect1182"
       is_visible="true"
       lpeversion="1"
       weight="33.333333"
       steps="2"
       helper_size="0"
       apply_no_weight="true"
       apply_with_weight="true"
       only_selected="false" />
    <marker
       inkscape:stockid="Arrow1Lstart"
       orient="auto"
       refY="0.0"
       refX="0.0"
       id="Arrow1Lstart"
       style="overflow:visible"
       inkscape:isstock="true">
      <path
         id="path852"
         d="M 0.0,0.0 L 5.0,-5.0 L -12.5,0.0 L 5.0,5.0 L 0.0,0.0 z "
         style="fill-rule:evenodd;stroke:#000000;stroke-width:1.0pt"
         transform="scale(0.8) translate(12.5,0)" />
    </marker>
    <rect
       x="80"
       y="310"
       width="860"
       height="400"
       id="rect7731" />
    <mask
       id="mask1735"
       maskUnits="userSpaceOnUse">
      <g
         id="g1843"
         inkscape:label="Mask Template"
         style="display:inline"
         inkscape:export-xdpi="12"
         inkscape:export-ydpi="12">
        <path
           d="M -10,-10 H 1030 V 1030 H -10 Z"
           inkscape:label="Mask"
           style="display:inline;fill:#ffffff;fill-opacity:1;fill-rule:nonzero;stroke:#000000;stroke-width:1;stroke-linecap:round;stroke-linejoin:round;stroke-miterlimit:4;stroke-dasharray:none;stroke-opacity:1;paint-order:normal"
           id="path1737" />
        <g
           inkscape:label="border"
           id="g1747"
           style="display:none">
          <path
             inkscape:label="Rect Vert Right - Empty"
             sodipodi:nodetypes="ccccccccc"
             id="path1739"
             d="M 963.7877,103.48963 V 920.51086 C 963.7877,966.4683 940,982.0003 900,982.0003 H 530 c -40,0 -57.7877,-20.63838 -57.7877,-61.48944 V 103.48963 C 472.2123,62.638575 490,42.0003 530,42.0003 h 370 c 40,0 63.7877,20.638275 63.7877,61.48933 z"
             style="display:none;fill:none;fill-opacity:1;stroke:#000000;stroke-width:20.4246;stroke-linecap:round;stroke-linejoin:round;stroke-miterlimit:4;stroke-dasharray:none;stroke-opacity:1" />
          <path
             inkscape:label="Rect Horiz - Empty"
             sodipodi:nodetypes="ccccccccc"
             id="path1741"
             d="M 918.51067,757.7877 H 101.48944 C 55.532,757.7877 40,734 40,694 V 324 c 0,-40 20.63838,-57.7877 61.48944,-57.7877 H 918.51067 C 959.36172,266.2123 980,284 980,324 v 370 c 0,40 -20.63828,63.7877 -61.48933,63.7877 z"
             style="display:none;fill:none;fill-opacity:1;stroke:#000000;stroke-width:20.4246;stroke-linecap:round;stroke-linejoin:round;stroke-miterlimit:4;stroke-dasharray:none;stroke-opacity:1" />
          <path
             style="display:none;fill:none;fill-opacity:1;stroke:#000000;stroke-width:20.4246;stroke-linecap:round;stroke-linejoin:round;stroke-miterlimit:4;stroke-dasharray:none;stroke-opacity:1"
             d="M 755.7877,103.48933 V 920.51056 C 755.7877,966.468 732,982 692,982 H 322 c -40,0 -57.7877,-20.63838 -57.7877,-61.48944 V 103.48933 C 264.2123,62.638275 282,42 322,42 h 370 c 40,0 63.7877,20.638275 63.7877,61.48933 z"
             id="path1743"
             sodipodi:nodetypes="ccccccccc"
             inkscape:label="Rect Vert - Empty" />
          <path
             inkscape:label="Square - Empty"
             sodipodi:nodetypes="ccccccccc"
             id="path1745"
             d="m 101.48934,40.212744 h 817.02132 c 45.95744,0 61.27659,20.425533 61.27659,61.276606 v 817.02128 c 0,30.63831 -20.42553,61.2766 -61.27659,61.2766 H 101.48934 c -40.851063,0 -61.276596,-20.42552 -61.276596,-61.2766 V 101.48935 c 0,-40.851073 20.425533,-61.276606 61.276596,-61.276606 z"
             style="display:inline;fill:none;fill-opacity:1;stroke:#000000;stroke-width:20.4246;stroke-linecap:round;stroke-linejoin:round;stroke-miterlimit:4;stroke-dasharray:none;stroke-opacity:1" />
        </g>
        <g
           inkscape:label="indicator"
           id="g1763">
          <rect
             inkscape:label="bar big"
             ry="0"
             y="800.45312"
             x="210.45312"
             height="69.093742"
             width="599.09375"
             id="rect1749"
             style="display:none;fill:#000000;fill-opacity:1;stroke:#424242;stroke-width:0.906258;stroke-linecap:round;stroke-linejoin:round" />
          <polygon
             id="polygon1751"
             points="127.5,63.75 255,191.25 0,191.25 "
             style="display:none;stroke-width:1.1087"
             inkscape:label="triangle up" />
          <rect
             style="display:none;fill:#000000;fill-opacity:1;stroke:#424242;stroke-width:0.906;stroke-linecap:round;stroke-linejoin:round;stroke-miterlimit:4;stroke-dasharray:none"
             id="rect1753"
             width="427.66684"
             height="49.093998"
             x="298.16656"
             y="800.453"
             ry="0"
             inkscape:label="Indicator - Small" />
          <path
             sodipodi:nodetypes="ccsccccccc"
             d="m 582,919.8 c 15,0 15,15 15,15 l 0.31846,19.85737 C 597.5558,969.45661 612,969.8 612,969.8 H 427 412 c 0,0 15,0 15,-15 v -20 c -0.0742,-14.70414 15,-15 15,-15 z"
             inkscape:label="notch"
             style="display:none;fill:#000000;fill-opacity:1;stroke:none;stroke-width:0.906253;stroke-linecap:round;stroke-linejoin:round"
             id="path1755" />
          <g
             id="g1761"
             inkscape:label="dot"
             style="display:inline;stroke-width:3.4"
             transform="matrix(0.29411765,0,0,0.29411765,361.41176,749.60794)">
            <path
               style="display:none;opacity:1;stroke-width:3.4"
               id="path1757"
               d="M 512,767 C 652.25,767 767,652.25 767,512 767,371.75 652.25,257 512,257 371.75,257 257,371.75 257,512 c 0,140.25 114.75,255 255,255 z m 0,-459 c 112.2,0 204,91.8 204,204 0,112.2 -91.8,204 -204,204 -112.2,0 -204,-91.8 -204,-204 0,-112.2 91.8,-204 204,-204 z" />
            <circle
               transform="scale(-1)"
               id="circle1759"
               r="170.66701"
               cy="-512"
               cx="-512"
               style="display:inline;opacity:1;stroke-width:3.4" />
          </g>
        </g>
        <g
           inkscape:label="icon"
           id="g1841">
          <g
             id="g1801"
             transform="matrix(-0.83660131,0,0,-0.83660131,768,768)"
             style="display:none;stroke-width:1.19531">
            <g
               id="g1769"
               style="stroke-width:1.19531">
              <g
                 id="g1767"
                 style="stroke-width:1.19531">
                <path
                   id="path1765"
                   d="M 561,76.5 H 178.5 c -17.85,0 -30.6,10.2 -40.8,22.95 L 0,306 137.7,512.55 c 10.2,12.75 25.5,22.95 43.35,22.95 H 561 c 28.05,0 51,-22.95 51,-51 v -357 c 0,-28.05 -22.95,-51 -51,-51 z M 229.5,344.25 c -20.4,0 -38.25,-17.85 -38.25,-38.25 0,-20.4 17.85,-38.25 38.25,-38.25 20.4,0 38.25,17.85 38.25,38.25 0,20.4 -17.85,38.25 -38.25,38.25 z m 127.5,0 c -20.4,0 -38.25,-17.85 -38.25,-38.25 0,-20.4 17.85,-38.25 38.25,-38.25 20.4,0 38.25,17.85 38.25,38.25 0,20.4 -17.85,38.25 -38.25,38.25 z m 127.5,0 c -20.4,0 -38.25,-17.85 -38.25,-38.25 0,-20.4 17.85,-38.25 38.25,-38.25 20.4,0 38.25,17.85 38.25,38.25 0,20.4 -17.85,38.25 -38.25,38.25 z"
                   style="stroke-width:1.19531" />
              </g>
            </g>
            <g
               id="g1771"
               style="stroke-width:1.19531" />
            <g
               id="g1773"
               style="stroke-width:1.19531" />
            <g
               id="g1775"
               style="stroke-width:1.19531" />
            <g
               id="g1777"
               style="stroke-width:1.19531" />
            <g
               id="g1779"
               style="stroke-width:1.19531" />
            <g
               id="g1781"
               style="stroke-width:1.19531" />
            <g
               id="g1783"
               style="stroke-width:1.19531" />
            <g
               id="g1785"
               style="stroke-width:1.19531" />
            <g
               id="g1787"
               style="stroke-width:1.19531" />
            <g
               id="g1789"
               style="stroke-width:1.19531" />
            <g
               id="g1791"
               style="stroke-width:1.19531" />
            <g
               id="g1793"
               style="stroke-width:1.19531" />
            <g
               id="g1795"
               style="stroke-width:1.19531" />
            <g
               id="g1797"
               style="stroke-width:1.19531" />
            <g
               id="g1799"
               style="stroke-width:1.19531" />
          </g>
          <g
             id="g1839"
             transform="matrix(1.0567595,0,0,1.0567595,256.00001,256.00001)"
             style="display:none;stroke-width:0.946289">
            <g
               id="g1807"
               style="stroke-width:0.946289">
              <g
                 id="g1805"
                 style="stroke-width:0.946289">
                <path
                   id="path1803"
                   d="M 372.3,84.15 C 364.651,71.4 349.35,63.75 331.5,63.75 H 51 c -28.05,0 -51,22.95 -51,51 v 255 c 0,28.05 22.95,51 51,51 h 280.5 c 17.85,0 33.15,-7.65 40.8,-20.4 l 112.2,-158.1 z m -40.8,285.6 H 51 v -255 h 280.5 l 89.25,127.5 z"
                   style="stroke-width:0.946289" />
              </g>
            </g>
            <g
               id="g1809"
               style="stroke-width:0.946289" />
            <g
               id="g1811"
               style="stroke-width:0.946289" />
            <g
               id="g1813"
               style="stroke-width:0.946289" />
            <g
               id="g1815"
               style="stroke-width:0.946289" />
            <g
               id="g1817"
               style="stroke-width:0.946289" />
            <g
               id="g1819"
               style="stroke-width:0.946289" />
            <g
               id="g1821"
               style="stroke-width:0.946289" />
            <g
               id="g1823"
               style="stroke-width:0.946289" />
            <g
               id="g1825"
               style="stroke-width:0.946289" />
            <g
               id="g1827"
               style="stroke-width:0.946289" />
            <g
               id="g1829"
               style="stroke-width:0.946289" />
            <g
               id="g1831"
               style="stroke-width:0.946289" />
            <g
               id="g1833"
               style="stroke-width:0.946289" />
            <g
               id="g1835"
               style="stroke-width:0.946289" />
            <g
               id="g1837"
               style="stroke-width:0.946289" />
          </g>
        </g>
      </g>
    </mask>
  </defs>
  <sodipodi:namedview
     id="base"
     pagecolor="#ffffff"
     bordercolor="#666666"
     borderopacity="1.0"
     inkscape:pageopacity="0.0"
     inkscape:pageshadow="2"
     inkscape:zoom="0.5"
     inkscape:cx="22"
     inkscape:cy="606"
     inkscape:document-units="px"
     inkscape:current-layer="layer2"
     inkscape:document-rotation="0"
     showgrid="true"
     inkscape:window-width="3008"
     inkscape:window-height="1621"
     inkscape:window-x="1792"
     inkscape:window-y="23"
     inkscape:window-maximized="0">
    <inkscape:grid
       snapvisiblegridlinesonly="true"
       id="grid1403"
       type="xygrid" />
  </sodipodi:namedview>
  <metadata
     id="metadata836">
    <rdf:RDF>
      <cc:Work
         rdf:about="">
        <dc:format>image/svg+xml</dc:format>
        <dc:type
           rdf:resource="http://purl.org/dc/dcmitype/StillImage" />
        <dc:title />
      </cc:Work>
    </rdf:RDF>
  </metadata>
  <g
     inkscape:groupmode="layer"
     id="layer2"
     inkscape:label="Background"
     style="display:inline;opacity:1">
    <path
       inkscape:export-ydpi="12"
       inkscape:export-xdpi="12"
       inkscape:label="Black"
       d="M -10,-10 H 1030 V 1030 H -10 Z"
       sodipodi:type="rect"
       style="display:inline;fill:#000000;fill-opacity:1;fill-rule:nonzero;stroke:#000000;stroke-width:1;stroke-linecap:round;stroke-linejoin:round;stroke-miterlimit:4;stroke-dasharray:none;stroke-opacity:1;paint-order:normal"
       id="rect1197"
       width="1040"
       height="1040"
       x="-10"
       y="-10"
       mask="url(#mask1735)"
       clip-path="none" />
  </g>
  <g
     id="g881"
     inkscape:label="Mask Template"
     style="display:none">
    <path
       d="M -10,-10 H 1030 V 1030 H -10 Z"
       inkscape:label="Mask"
       style="display:inline;fill:#ffffff;fill-opacity:1;fill-rule:nonzero;stroke:#000000;stroke-width:1;stroke-linecap:round;stroke-linejoin:round;stroke-miterlimit:4;stroke-dasharray:none;stroke-opacity:1;paint-order:normal"
       id="path875" />
    <path
       style="display:inline;fill:none;fill-opacity:1;stroke:#000000;stroke-width:20.4255;stroke-linecap:round;stroke-linejoin:round;stroke-miterlimit:4;stroke-dasharray:none;stroke-opacity:1"
       d="m 101.48934,40.212744 h 817.02132 c 45.95744,0 61.27659,20.425533 61.27659,61.276606 v 817.02128 c 0,30.63831 -20.42553,61.2766 -61.27659,61.2766 H 101.48934 c -40.851063,0 -61.276596,-20.42552 -61.276596,-61.2766 V 101.48935 c 0,-40.851073 20.425533,-61.276606 61.276596,-61.276606 z"
       id="path882"
       sodipodi:nodetypes="ccccccccc"
       inkscape:label="Square - Empty" />
    <rect
       style="fill:#000000;fill-opacity:1;stroke:#424242;stroke-width:0.906258;stroke-linecap:round;stroke-linejoin:round"
       id="rect885"
       width="599.09375"
       height="69.093742"
       x="210.45312"
       y="800.45312"
       ry="0"
       inkscape:label="Indicator" />
  </g>
</svg>
