<?xml version="1.0" encoding="UTF-8" standalone="no"?>
<svg
   xmlns:dc="http://purl.org/dc/elements/1.1/"
   xmlns:cc="http://creativecommons.org/ns#"
   xmlns:rdf="http://www.w3.org/1999/02/22-rdf-syntax-ns#"
   xmlns:svg="http://www.w3.org/2000/svg"
   xmlns="http://www.w3.org/2000/svg"
   xmlns:sodipodi="http://sodipodi.sourceforge.net/DTD/sodipodi-0.dtd"
   xmlns:inkscape="http://www.inkscape.org/namespaces/inkscape"
   inkscape:version="1.0 (4035a4f, 2020-05-01)"
   sodipodi:docname="microphone.svg"
   xml:space="preserve"
   style="enable-background:new 0 0 484.5 484.5;"
   viewBox="0 0 484.5 484.5"
   height="484.5px"
   width="484.5px"
   y="0px"
   x="0px"
   id="Capa_1"
   version="1.1"><metadata
   id="metadata4931"><rdf:RDF><cc:Work
       rdf:about=""><dc:format>image/svg+xml</dc:format><dc:type
         rdf:resource="http://purl.org/dc/dcmitype/StillImage" /></cc:Work></rdf:RDF></metadata><defs
   id="defs4929" /><sodipodi:namedview
   inkscape:current-layer="Capa_1"
   inkscape:window-maximized="0"
   inkscape:window-y="23"
   inkscape:window-x="1792"
   inkscape:cy="248.18265"
   inkscape:cx="386.28163"
   inkscape:zoom="2"
   showgrid="false"
   id="namedview4927"
   inkscape:window-height="1595"
   inkscape:window-width="3008"
   inkscape:pageshadow="2"
   inkscape:pageopacity="0"
   guidetolerance="10"
   gridtolerance="10"
   objecttolerance="10"
   borderopacity="1"
   bordercolor="#666666"
   pagecolor="#ffffff" />
<path
   inkscape:label="mic"
   id="path4891"
   d="M242.25,306c43.35,0,76.5-33.15,76.5-76.5v-153c0-43.35-33.15-76.5-76.5-76.5c-43.35,0-76.5,33.15-76.5,76.5v153    C165.75,272.85,198.9,306,242.25,306z M377.4,229.5c0,76.5-63.75,130.05-135.15,130.05c-71.4,0-135.15-53.55-135.15-130.05H63.75    c0,86.7,68.85,158.1,153,170.85v84.15h51v-84.15c84.15-12.75,153-84.149,153-170.85H377.4L377.4,229.5z" />















</svg>
