<?xml version="1.0" encoding="iso-8859-1"?>
<!-- Generator: Adobe Illustrator 19.0.0, SVG Export Plug-In . SVG Version: 6.00 Build 0)  -->
<svg xmlns="http://www.w3.org/2000/svg" xmlns:xlink="http://www.w3.org/1999/xlink" version="1.1" id="Capa_1" x="0px" y="0px" viewBox="0 0 469.333 469.333" style="enable-background:new 0 0 469.333 469.333;" xml:space="preserve">
<g>
	<g>
		<g>
			<path d="M213.333,362.667c35.2,0,63.573-28.373,63.893-63.467l0.107-149.867h64v-42.667H234.667v131.947     c-10.667-2.453-13.76-3.947-21.333-3.947c-35.307,0-64,28.693-64,64C149.333,333.973,178.027,362.667,213.333,362.667z"/>
			<path d="M426.667,42.667h-384C19.093,42.667,0,61.76,0,85.333V384c0,23.573,19.093,42.667,42.667,42.667h384     c23.573,0,42.667-19.093,42.667-42.667V85.333C469.333,61.76,450.24,42.667,426.667,42.667z M426.667,384h-384V85.333h384V384z"/>
		</g>
	</g>
</g>
<g>
</g>
<g>
</g>
<g>
</g>
<g>
</g>
<g>
</g>
<g>
</g>
<g>
</g>
<g>
</g>
<g>
</g>
<g>
</g>
<g>
</g>
<g>
</g>
<g>
</g>
<g>
</g>
<g>
</g>
</svg>
