<?xml version="1.0" encoding="UTF-8" standalone="no"?>
<svg
   xmlns:dc="http://purl.org/dc/elements/1.1/"
   xmlns:cc="http://creativecommons.org/ns#"
   xmlns:rdf="http://www.w3.org/1999/02/22-rdf-syntax-ns#"
   xmlns:svg="http://www.w3.org/2000/svg"
   xmlns="http://www.w3.org/2000/svg"
   xmlns:sodipodi="http://sodipodi.sourceforge.net/DTD/sodipodi-0.dtd"
   xmlns:inkscape="http://www.inkscape.org/namespaces/inkscape"
   version="1.1"
   id="Capa_1"
   x="0px"
   y="0px"
   viewBox="0 0 426.667 426.667"
   style="enable-background:new 0 0 426.667 426.667;"
   xml:space="preserve"
   sodipodi:docname="stream.svg"
   inkscape:version="1.0 (4035a4f, 2020-05-01)"><metadata
   id="metadata79295"><rdf:RDF><cc:Work
       rdf:about=""><dc:format>image/svg+xml</dc:format><dc:type
         rdf:resource="http://purl.org/dc/dcmitype/StillImage" /></cc:Work></rdf:RDF></metadata><defs
   id="defs79293" /><sodipodi:namedview
   inkscape:document-rotation="0"
   pagecolor="#ffffff"
   bordercolor="#666666"
   borderopacity="1"
   objecttolerance="10"
   gridtolerance="10"
   guidetolerance="10"
   inkscape:pageopacity="0"
   inkscape:pageshadow="2"
   inkscape:window-width="3008"
   inkscape:window-height="1621"
   id="namedview79291"
   showgrid="false"
   inkscape:zoom="1.7226549"
   inkscape:cx="-64.725675"
   inkscape:cy="213.3335"
   inkscape:window-x="1792"
   inkscape:window-y="23"
   inkscape:window-maximized="0"
   inkscape:current-layer="g95736" />
















<g
   id="g95736"
   inkscape:label="stream"><path
     inkscape:label="movie"
     id="path79254"
     d="M 341.333,42.667 384,128 H 320 L 277.333,42.667 H 234.666 L 277.333,128 h -64 L 170.666,42.667 H 128 L 170.667,128 h -64 L 64,42.667 H 42.667 C 19.094,42.667 0.214,61.76 0.214,85.334 L 0,341.333 C 0,364.907 19.093,384 42.667,384 H 384 c 23.573,0 42.667,-19.093 42.667,-42.667 V 42.667 Z" /><path
     style="fill:#ffffff;fill-opacity:1;stroke-width:1"
     inkscape:label="volume"
     d="m 111.06077,220.90909 v 68.18182 h 45.45454 l 56.81819,56.81818 V 164.09091 l -56.81819,56.81818 z M 264.46986,255 c 0,-20.45455 -11.36364,-37.5 -28.40909,-45.45455 v 90.9091 C 253.10622,292.5 264.46986,275.45455 264.46986,255 Z M 236.06077,155 v 23.86363 c 32.95455,10.22728 56.81818,39.77228 56.81818,76.13637 0,36.36408 -23.86363,65.90909 -56.81818,76.13636 V 355 c 45.45455,-10.22772 79.54546,-51.13636 79.54546,-100 0,-48.86364 -34.09091,-89.77318 -79.54546,-100 z"
     id="path95598" /><path
     style="fill:#ffffff;fill-opacity:1;stroke-width:1"
     inkscape:label="mic"
     id="path4891"
     d="m 213.3335,281.31579 c 17.89474,0 31.57895,-13.68421 31.57895,-31.57895 V 186.57895 C 244.91245,168.68421 231.22824,155 213.3335,155 c -17.89474,0 -31.57895,13.68421 -31.57895,31.57895 v 63.15789 c 0,17.89474 13.68421,31.57895 31.57895,31.57895 z m 55.78947,-31.57895 c 0,31.57895 -26.31579,53.68421 -55.78947,53.68421 -29.47368,0 -55.78947,-22.10526 -55.78947,-53.68421 h -17.89474 c 0,35.78948 28.42105,65.26316 63.15789,70.52632 V 355 h 21.05264 V 320.26316 C 258.59666,315 287.01771,285.52673 287.01771,249.73684 Z" /><path
     style="fill:#ffffff;fill-opacity:1;stroke-width:0.999996"
     inkscape:label="music"
     d="m 188.3332,355 c 27.4999,0 49.66622,-22.16632 49.91621,-49.5834 l 0.0836,-117.08314 h 49.9998 V 155 h -83.33248 v 103.08319 c -8.33357,-1.9164 -10.74996,-3.08358 -16.66635,-3.08358 -27.58348,0 -49.9998,22.41632 -49.9998,49.9998 C 138.3334,332.5829 160.7505,355 188.3332,355 Z"
     id="path96496" /></g></svg>
